# AST/ASF file generated using VICON BodyLanguage
# -----------------------------------------------
:version 1.10
:name VICON
:units
  mass 1.0
  length 0.45
  angle deg
:documentation
   .ast/.asf automatically generated from VICON data using
   VICON BodyBuilder and BodyLanguage model FoxedUp or BRILLIANT.MOD
:root
   order TX TY TZ RX RY RZ
   axis XYZ
   position 0 0 0  
   orientation 0 0 0 
:bonedata
  begin
     id 1 
     name lhipjoint
     direction 0.604623 -0.733026 0.311616 
     length 2.56391 
     axis 0 0 0  XYZ
  end
  begin
     id 2 
     name lfemur
     direction 0.34202 -0.939693 0  
     length 7.75596  
     axis 0 0 20  XYZ
    dof rx ry rz
    limits (-160.0 20.0)
           (-70.0 70.0)
           (-60.0 70.0)
  end
  begin
     id 3 
     name ltibia
     direction 0.34202 -0.939693 0   
     length 7.63697   
     axis 0 0 20   XYZ
    dof rx
    limits (-10.0 170.0)
  end
  begin
     id 4 
     name lfoot
     direction 0.048038 -0.131983 0.990087   
     length 1.94388   
     axis -90 7.62852e-016 20   XYZ
    dof rx rz
    limits (-45.0 90.0)
           (-70.0 20.0)
  end
  begin
     id 5 
     name ltoes
     direction 1.53565e-011 -4.21929e-011 1   
     length 0.984801   
     axis -90 7.62852e-016 20   XYZ
    dof rx
    limits (-90.0 20.0)
  end
  begin
     id 6 
     name rhipjoint
     direction -0.609162 -0.729836 0.31026   
     length 2.57511  
     axis 0 0 0  XYZ 
  end
  begin
     id 7 
     name rfemur
     direction -0.34202 -0.939693 0   
     length 7.60772   
     axis 0 0 -20   XYZ
    dof rx ry rz
    limits (-160.0 20.0)
           (-70.0 70.0)
           (-70.0 60.0)
  end
  begin
     id 8 
     name rtibia
     direction -0.34202 -0.939693 0   
     length 7.68497   
     axis 0 0 -20   XYZ
    dof rx
    limits (-10.0 170.0)
 end
 begin
     id 9 
     name rfoot
     direction -0.0969806 -0.266452 0.958957   
     length 2.01398  
     axis -90 -7.62852e-016 -20   XYZ
    dof rx rz
    limits (-45.0 90.0)
           (-20.0 70.0)
  end
  begin
     id 10 
     name rtoes
     direction -1.53552e-011 -4.21869e-011 1   
     length 1.00896   
     axis -90 -7.62852e-016 -20   XYZ
    dof rx
    limits (-90.0 20.0)
  end
  begin
     id 11 
     name lowerback
     direction 0.0305179 0.993923 -0.10576   
     length 2.09077   
     axis 0 0 0   XYZ
    dof rx ry rz
    limits (-20.0 45.0)
           (-30.0 30.0)
           (-30.0 30.0)
  end
  begin
     id 12 
     name upperback
     direction -0.0137909 0.999867 0.00873764   
     length 2.08918   
     axis 0 0 0   XYZ
    dof rx ry rz
    limits (-20.0 45.0)
           (-30.0 30.0)
           (-30.0 30.0)
  end
  begin
     id 13 
     name thorax
     direction -0.0278536 0.997917 0.0581839   
     length 2.11939   
     axis 0 0 0   XYZ
    dof rx ry rz
    limits (-20.0 45.0)
           (-30.0 30.0)
           (-30.0 30.0)
  end
  begin
     id 14 
     name lowerneck
     direction 0.0138689 0.999837 -0.0116016   
     length 1.74353   
     axis 0 0 0   XYZ
    dof rx ry rz
    limits (-20.0 45.0)
           (-30.0 30.0)
           (-30.0 30.0)
  end
  begin
     id 15 
     name upperneck
     direction -0.00992078 0.999667 0.0238149   
     length 1.71734   
     axis 0 0 0   XYZ
    dof rx ry rz
    limits (-20.0 45.0)
           (-30.0 30.0)
           (-30.0 30.0)
  end
  begin
     id 16
     name head
     direction -0.00530555 0.999941 0.00944937  
     length 1.78249  
     axis 0 0 0   XYZ
    dof rx ry rz
    limits (-20.0 45.0)
           (-30.0 30.0)
           (-30.0 30.0)
  end
  begin
     id 17 
     name lclavicle
     direction 0.929165 0.366864 0.0454227  
     length 3.65686  
     axis 0 0 0   XYZ
    dof ry rz
    limits (-20.0 10.0)
           (0.0 20.0)
  end
  begin
     id 18 
     name lhumerus
     direction 1 -4.4897e-011 3.05413e-018   
     length 5.15218   
     axis -180 -30 -90   XYZ
    dof rx ry rz
    limits (-60.0 90.0)
           (-90.0 90.0)
           (-90.0 90.0)
  end
  begin
     id 19
     name lradius
     direction 1 -4.48963e-011 5.40022e-027   
     length 3.49459   
     axis -180 -30 -90   XYZ
    dof rx
    limits (-10.0 170.0)
  end
  begin
     id 20
     name lwrist
     direction 1 -4.48966e-011 9.79369e-027   
     length 1.7473   
     axis -4.67603e-015 90 90   XYZ
    dof ry
    limits (-180.0 0.0)
 end
  begin
     id 21 
     name lhand
     direction 1 -4.48996e-011 1.9593e-026   
     length 0.512466   
     axis -1.24987e-014 90 90   XYZ
    dof rx rz
    limits (-90.0 90.0)
           (-45.0 45.0)
  end
  begin
     id 22 
     name lfingers
     direction 1 -4.48931e-011 3.91616e-026   
     length 0.413163   
     axis -2.49979e-014 90 90   XYZ
    dof rx
    limits (0.0 90.0)
  end
  begin
     id 23
     name lthumb
     direction 0.707107 -6.34959e-011 0.707107   
     length 0.593222   
     axis -90 45 5.69224e-014   XYZ
    dof rx rz
    limits (-45.0 45.0)
           (-45.0 45.0)
  end
  begin
     id 24 
     name rclavicle
     direction -0.951469 0.307727 0.00346571   
     length 3.42864  
     axis 0 0 0   XYZ 
    dof ry rz
    limits (-10.0 20.0)
           (-20.0 0.0)
  end
  begin
     id 25 
     name rhumerus
     direction -1 -4.48967e-011 2.58643e-027  
     length 5.44344   
     axis -180 30 90   XYZ
    dof rx ry rz
    limits (-90.0 60.0)
           (-90.0 90.0)
           (-90.0 90.0)
  end
  begin
     id 26 
     name rradius
     direction -1 -4.48973e-011 4.26485e-028   
     length 3.58403   
     axis -180 30 90   XYZ
    dof rx
    limits (-10.0 170.0)
  end
  begin
     id 27 
     name rwrist
     direction -1 -4.48962e-011 9.79331e-027   
     length 1.79202   
     axis -4.67603e-015 -90 -90   XYZ
    dof ry
    limits (-180.0 0.0)
  end
  begin
     id 28
     name rhand
     direction -1 -4.48975e-011 1.95891e-026   
     length 0.34249   
     axis -1.24987e-014 -90 -90   XYZ
    dof rx rz
    limits (-90.0 90.0)
           (-45.0 45.0)
  end
  begin
     id 29
     name rfingers
     direction -1 -4.48893e-011 3.9147e-026   
     length 0.276124   
     axis -2.49979e-014 -90 -90   XYZ
    dof rx
    limits (0.0 90.0)
  end
  begin
     id 30
     name rthumb
     direction -0.707107 -6.34898e-011 0.707107   
     length 0.39646   
     axis -90 -45 -5.69224e-014   XYZ
    dof rx rz
    limits (-45.0 45.0)
           (-45.0 45.0)
  end
:hierarchy
  begin
    root lhipjoint rhipjoint lowerback
    lhipjoint lfemur
    lfemur ltibia
    ltibia lfoot
    lfoot ltoes
    rhipjoint rfemur
    rfemur rtibia
    rtibia rfoot
    rfoot rtoes
    lowerback upperback
    upperback thorax
    thorax lowerneck lclavicle rclavicle
    lowerneck upperneck
    upperneck head
    lclavicle lhumerus
    lhumerus lradius
    lradius lwrist
    lwrist lhand lthumb
    lhand lfingers
    rclavicle rhumerus
    rhumerus rradius
    rradius rwrist
    rwrist rhand rthumb
    rhand rfingers
  end

#!OML:ASF H:\charlestonDancing\Project 1\Capture day 1\Session 1\femaleDancer.ASF
:FULLY-SPECIFIED
:DEGREES
341
root -13.5433 17.9427 -2.64145 -181.495 142.915 -545.336
lowerback 9.82408 6.07491 10.8704
upperback -1.16465 9.35586 -0.775062
thorax -4.86995 4.30794 -8.01834
lowerneck 13.8786 21.8428 13.3994
upperneck -5.50161 30.5711 -13.7637
head 0.327508 15.6924 -5.97987
rclavicle 2.51121e-014 1.74434e-014
rhumerus -39.6059 -12.8026 -77.6847
rradius 14.2435
rwrist 37.5276
rhand -15.3751 -30.4309
rfingers 7.12502
rthumb 10.803 -60.133
lclavicle 2.51121e-014 1.74434e-014
lhumerus -25.6711 -6.92952 80.8067
lradius 60.0853
lwrist 18.9262
lhand -17.0306 26.9248
lfingers 7.12502
lthumb 9.20584 56.7038
rfemur -4.17073 -14.573 29.8213
rtibia 22.0312
rfoot -18.6508 -9.41906
rtoes -10.8313
lfemur -33.97 -5.68465 -7.32096
ltibia 54.064
lfoot 12.5745 -5.85897
ltoes -25.4651
342
root -13.5322 17.955 -2.6129 -181.01 140.901 -544.852
lowerback 9.74267 6.27718 10.5682
upperback -1.33232 9.57395 -1.06516
thorax -4.95475 4.40989 -8.17983
lowerneck 14.6914 22.4724 13.344
upperneck -6.86172 31.379 -14.6482
head 0.0430868 16.1549 -6.31137
rclavicle 3.09856e-014 -3.32964e-015
rhumerus -39.9246 -12.3369 -78.5898
rradius 13.6466
rwrist 38.4852
rhand -14.5355 -30.4106
rfingers 7.12502
rthumb 11.6127 -60.0688
lclavicle 3.09856e-014 -3.32964e-015
lhumerus -25.6801 -8.37911 82.8596
lradius 57.2333
lwrist 19.3301
lhand -16.3623 26.3403
lfingers 7.12502
lthumb 9.85064 56.0899
rfemur -4.31779 -15.1991 29.506
rtibia 21.9285
rfoot -18.6454 -10.6239
rtoes -10.9104
lfemur -34.42 -6.02294 -7.97713
ltibia 53.5335
lfoot 13.2935 -6.8166
ltoes -24.5758
343
root -13.4964 17.9633 -2.58265 -180.882 138.969 -544.512
lowerback 9.77833 6.46538 10.6023
upperback -1.39228 9.82216 -1.32264
thorax -4.93583 4.52911 -8.49701
lowerneck 14.6388 22.7787 13.2224
upperneck -7.0857 31.7485 -14.6509
head 0.0137867 16.338 -6.27957
rclavicle 9.33356e-015 8.72168e-015
rhumerus -40.2006 -11.2647 -79.8608
rradius 13.3477
rwrist 39.5439
rhand -13.3056 -30.4089
rfingers 7.12502
rthumb 12.7986 -59.9965
lclavicle 9.33356e-015 8.72168e-015
lhumerus -25.8615 -9.65462 84.7768
lradius 54.3612
lwrist 20.2905
lhand -16.3241 25.6029
lfingers 7.12502
lthumb 9.88753 55.3507
rfemur -4.14015 -15.8049 29.1679
rtibia 21.8792
rfoot -18.6204 -11.749
rtoes -11.0526
lfemur -34.5032 -6.31609 -8.6343
ltibia 53.0782
lfoot 13.9034 -7.66917
ltoes -23.4955
344
root -13.4659 17.9603 -2.55301 -180.836 137.071 -544.291
lowerback 9.925 6.65706 10.6464
upperback -1.5365 10.0972 -1.53149
thorax -5.0692 4.64644 -8.79614
lowerneck 15.108 22.9795 13.2731
upperneck -7.52731 32.0365 -14.9069
head -0.0979723 16.5043 -6.40956
rclavicle -3.75207e-014 -1.41859e-014
rhumerus -40.5627 -8.93841 -81.9086
rradius 13.4651
rwrist 39.8917
rhand -12.35 -30.1703
rfingers 7.12502
rthumb 13.7197 -59.698
lclavicle -3.75207e-014 -1.41859e-014
lhumerus -26.2704 -10.5212 86.4962
lradius 51.4223
lwrist 20.867
lhand -16.7674 24.7091
lfingers 7.12502
lthumb 9.45976 54.4768
rfemur -3.92774 -16.4409 28.9599
rtibia 21.8214
rfoot -18.6028 -12.8612
rtoes -11.4434
lfemur -34.5995 -6.29309 -9.19868
ltibia 52.7188
lfoot 14.5657 -8.63681
ltoes -22.5072
345
root -13.4378 17.954 -2.52322 -180.862 135.09 -544.23
lowerback 10.0332 6.837 10.7065
upperback -1.652 10.3551 -1.6907
thorax -5.15819 4.75953 -9.0421
lowerneck 15.3546 23.1806 13.1499
upperneck -8.00994 32.2714 -15.0809
head -0.236253 16.637 -6.49182
rclavicle -1.86759e-013 4.27387e-015
rhumerus -40.849 -5.32997 -84.8662
rradius 14.1219
rwrist 38.495
rhand -11.6549 -30.0056
rfingers 7.12502
rthumb 14.3895 -59.4868
lclavicle -1.86759e-013 4.27387e-015
lhumerus -26.5832 -10.7576 87.8933
lradius 48.3765
lwrist 20.119
lhand -16.684 23.7696
lfingers 7.12502
lthumb 9.54027 53.5336
rfemur -3.71261 -17.1154 28.9023
rtibia 21.7054
rfoot -18.6479 -13.9471
rtoes -11.4477
lfemur -34.8006 -6.25697 -9.602
ltibia 52.4241
lfoot 15.3189 -9.35876
ltoes -20.1666
346
root -13.4065 17.951 -2.49058 -181.028 133.157 -544.431
lowerback 10.085 7.05734 10.8965
upperback -1.75047 10.6778 -1.81271
thorax -5.16553 4.90807 -9.31066
lowerneck 15.268 23.4216 12.8754
upperneck -8.427 32.5103 -15.0739
head -0.360936 16.7554 -6.47671
rclavicle 6.79906e-015 -6.31141e-015
rhumerus -41.1721 -1.48456 -87.9773
rradius 15.1276
rwrist 35.9751
rhand -11.5727 -29.6313
rfingers 7.12502
rthumb 14.4687 -59.1069
lclavicle 6.79906e-015 -6.31141e-015
lhumerus -26.7349 -10.2342 88.8607
lradius 45.2272
lwrist 17.6977
lhand -15.9069 23.0373
lfingers 7.12502
lthumb 10.2899 52.7656
rfemur -3.539 -17.6358 29.0616
rtibia 21.5941
rfoot -18.8297 -14.9784
rtoes -10.6599
lfemur -35.0409 -6.19836 -9.78474
ltibia 52.1584
lfoot 15.9543 -10.0211
ltoes -17.1638
347
root -13.3687 17.9495 -2.45256 -181.101 131.49 -544.614
lowerback 9.97502 7.35102 11.0446
upperback -1.84803 11.0711 -1.99515
thorax -5.05627 5.10286 -9.59468
lowerneck 14.4207 23.7478 11.9944
upperneck -8.22613 32.77 -13.6809
head -0.522921 16.797 -5.9777
rclavicle -4.25865e-014 -2.85256e-014
rhumerus -41.5522 2.01358 -90.8345
rradius 16.2688
rwrist 33.4426
rhand -11.9387 -29.5149
rfingers 7.12502
rthumb 14.1161 -59.0154
lclavicle -4.25865e-014 -2.85256e-014
lhumerus -26.7413 -8.86493 89.2051
lradius 41.9802
lwrist 13.8661
lhand -15.5056 22.1831
lfingers 7.12502
lthumb 10.6771 51.8919
rfemur -3.45884 -17.9551 29.2222
rtibia 21.5304
rfoot -18.9498 -16.0119
rtoes -10.2608
lfemur -35.2307 -5.89927 -10.0053
ltibia 51.8842
lfoot 15.7529 -11.1045
ltoes -17.687
348
root -13.3169 17.9436 -2.41619 -181.242 129.621 -544.623
lowerback 10.0612 7.57018 10.9574
upperback -1.99297 11.3668 -2.08078
thorax -5.19063 5.23464 -9.6853
lowerneck 14.4838 23.8766 11.6402
upperneck -8.62438 32.8757 -13.4614
head -0.731877 16.8404 -5.94963
rclavicle -5.2212e-015 7.55382e-015
rhumerus -42.2728 5.29918 -93.2132
rradius 17.3208
rwrist 31.5674
rhand -13.2725 -29.3636
rfingers 7.12502
rthumb 12.8305 -58.9493
lclavicle -5.2212e-015 7.55382e-015
lhumerus -26.991 -6.78534 89.2301
lradius 38.6843
lwrist 9.09189
lhand -15.9255 20.9766
lfingers 7.12502
lthumb 10.2721 50.7058
rfemur -3.15046 -18.5702 29.1341
rtibia 21.4932
rfoot -19.0354 -16.9937
rtoes -10.3153
lfemur -35.161 -5.82136 -10.4594
ltibia 51.5732
lfoot 14.6294 -12.2591
ltoes -21.1051
349
root -13.2643 17.9346 -2.3776 -181.29 127.971 -544.614
lowerback 10.0074 7.80672 10.8879
upperback -2.14373 11.6692 -2.22084
thorax -5.23621 5.37661 -9.81848
lowerneck 16.039 23.7982 12.222
upperneck -10.3256 32.8504 -14.9594
head -1.12136 16.9294 -6.66511
rclavicle 1.93877e-014 -2.51463e-014
rhumerus -43.0307 9.07201 -96.0592
rradius 18.9472
rwrist 27.1907
rhand -12.5388 -31.6255
rfingers 7.12502
rthumb 13.5378 -61.1654
lclavicle 1.93877e-014 -2.51463e-014
lhumerus -27.2064 -4.25113 88.6125
lradius 35.4236
lwrist 3.92754
lhand -16.6631 20.39
lfingers 7.12502
lthumb 9.5604 50.1531
rfemur -2.91827 -19.0184 29.0804
rtibia 21.4642
rfoot -19.0882 -17.9516
rtoes -10.4912
lfemur -35.0808 -5.46842 -10.9325
ltibia 51.2178
lfoot 13.3576 -12.9896
ltoes -21.9411
350
root -13.206 17.9267 -2.33731 -181.396 126.275 -544.756
lowerback 9.838 8.02606 10.9577
upperback -2.35161 11.9556 -2.38955
thorax -5.24906 5.50673 -10.0388
lowerneck 16.9415 23.6421 12.0854
upperneck -11.3923 32.6296 -15.0249
head -1.61119 16.8312 -6.9167
rclavicle -1.56046e-014 1.45113e-014
rhumerus -43.7082 11.1693 -97.4936
rradius 19.5055
rwrist 27.6477
rhand -15.9338 -29.3368
rfingers 7.12502
rthumb 10.264 -59.0664
lclavicle -1.56046e-014 1.45113e-014
lhumerus -27.508 -1.61196 87.5091
lradius 32.3836
lwrist -1.1267
lhand -17.3817 20.2066
lfingers 7.12502
lthumb 8.86702 50.0003
rfemur -2.72548 -19.4871 29.1541
rtibia 21.3924
rfoot -19.1534 -18.9988
rtoes -10.333
lfemur -35.0705 -4.96918 -11.39
ltibia 50.8105
lfoot 11.9197 -13.8013
ltoes -20.9717
351
root -13.14 17.9196 -2.29545 -181.621 124.695 -545.158
lowerback 9.49884 8.21572 10.8863
upperback -2.44085 12.1648 -2.42675
thorax -5.11082 5.62235 -9.993
lowerneck 17.2191 23.5882 11.8161
upperneck -12.1931 32.4823 -15.1197
head -1.937 16.7661 -7.05133
rclavicle 6.23687e-015 3.45885e-014
rhumerus -43.9061 13.2679 -98.6536
rradius 20.8622
rwrist 25.2479
rhand -15.1391 -30.2551
rfingers 7.12502
rthumb 11.0306 -59.9453
lclavicle 6.23687e-015 3.45885e-014
lhumerus -27.6155 1.49801 86.0029
lradius 29.6405
lwrist -5.64733
lhand -19.0447 19.0217
lfingers 7.12502
lthumb 7.26201 48.8771
rfemur -2.59367 -19.8979 29.4023
rtibia 21.272
rfoot -19.2918 -19.9527
rtoes -9.72237
lfemur -35.1485 -4.21184 -11.7868
ltibia 50.3742
lfoot 9.93403 -14.5066
ltoes -21.6893
352
root -13.069 17.9152 -2.25349 -181.893 123.295 -545.641
lowerback 9.21037 8.46158 10.8753
upperback -2.66623 12.4712 -2.47067
thorax -5.11267 5.76671 -10.014
lowerneck 17.1667 23.6118 11.7689
upperneck -11.9265 32.5423 -14.6671
head -1.92845 16.7619 -6.91431
rclavicle 4.02228e-014 -1.96797e-014
rhumerus -44.1374 14.7222 -99.2753
rradius 21.8767
rwrist 23.8297
rhand -15.2135 -30.3675
rfingers 7.12502
rthumb 10.9588 -60.0615
lclavicle 4.02228e-014 -1.96797e-014
lhumerus -27.992 4.70387 84.12
lradius 26.9405
lwrist -9.11994
lhand -20.5212 17.9218
lfingers 7.12502
lthumb 5.83666 47.8215
rfemur -2.43247 -20.1446 29.6938
rtibia 21.0756
rfoot -19.2752 -20.9413
rtoes -9.83766
lfemur -35.1935 -3.17241 -12.2588
ltibia 49.8891
lfoot 7.60992 -14.3069
ltoes -22.6306
353
root -12.9906 17.9115 -2.21273 -182.079 121.953 -545.972
lowerback 8.90963 8.68387 10.7863
upperback -2.87219 12.7338 -2.53361
thorax -5.10811 5.89361 -10.0062
lowerneck 15.9616 23.9079 11.8507
upperneck -9.91275 33.0214 -13.3475
head -1.30736 16.9077 -6.24384
rclavicle 1.19308e-013 5.56597e-015
rhumerus -44.1517 15.9138 -99.519
rradius 22.5844
rwrist 23.3732
rhand -15.6023 -30.411
rfingers 7.12502
rthumb 10.5838 -60.1245
lclavicle 1.19308e-013 5.56597e-015
lhumerus -28.572 8.18312 81.788
lradius 24.5363
lwrist -11.8852
lhand -19.5975 17.8369
lfingers 7.12502
lthumb 6.72842 47.71
rfemur -2.14567 -20.3322 29.8471
rtibia 20.7779
rfoot -19.0807 -21.8691
rtoes -10.1497
lfemur -35.1243 -1.84404 -13.019
ltibia 49.3475
lfoot 4.54903 -13.2792
ltoes -24.4571
